<svg xmlns="http://www.w3.org/2000/svg" width="900" height="390" viewBox="0 0 900 390">
<rect width="100%" height="100%" fill="#fffdf8"/>
<text x="70" y="24" font-size="18" font-family="Arial, sans-serif" fill="#111827">EM+EKS converges quickly on the shared Chapter 15 benchmark</text>
<text x="70" y="41" font-size="16" font-family="Arial, sans-serif" fill="#111827">Parameter update</text>
<line x1="70" y1="286.10" x2="410" y2="286.10" stroke="#e5e7eb" stroke-width="1"/>
<text x="60" y="290.10" text-anchor="end" font-size="11" font-family="Arial, sans-serif" fill="#4b5563">0.9</text>
<line x1="70" y1="237.87" x2="410" y2="237.87" stroke="#e5e7eb" stroke-width="1"/>
<text x="60" y="241.87" text-anchor="end" font-size="11" font-family="Arial, sans-serif" fill="#4b5563">1</text>
<line x1="70" y1="189.65" x2="410" y2="189.65" stroke="#e5e7eb" stroke-width="1"/>
<text x="60" y="193.65" text-anchor="end" font-size="11" font-family="Arial, sans-serif" fill="#4b5563">1.1</text>
<line x1="70" y1="141.42" x2="410" y2="141.42" stroke="#e5e7eb" stroke-width="1"/>
<text x="60" y="145.42" text-anchor="end" font-size="11" font-family="Arial, sans-serif" fill="#4b5563">1.2</text>
<line x1="70" y1="93.19" x2="410" y2="93.19" stroke="#e5e7eb" stroke-width="1"/>
<text x="60" y="97.19" text-anchor="end" font-size="11" font-family="Arial, sans-serif" fill="#4b5563">1.3</text>
<line x1="70.00" y1="55" x2="70.00" y2="305" stroke="#f3f4f6" stroke-width="1"/>
<text x="70.00" y="325" text-anchor="middle" font-size="11" font-family="Arial, sans-serif" fill="#4b5563">0</text>
<line x1="118.57" y1="55" x2="118.57" y2="305" stroke="#f3f4f6" stroke-width="1"/>
<text x="118.57" y="325" text-anchor="middle" font-size="11" font-family="Arial, sans-serif" fill="#4b5563">1</text>
<line x1="167.14" y1="55" x2="167.14" y2="305" stroke="#f3f4f6" stroke-width="1"/>
<text x="167.14" y="325" text-anchor="middle" font-size="11" font-family="Arial, sans-serif" fill="#4b5563">2</text>
<line x1="215.71" y1="55" x2="215.71" y2="305" stroke="#f3f4f6" stroke-width="1"/>
<text x="215.71" y="325" text-anchor="middle" font-size="11" font-family="Arial, sans-serif" fill="#4b5563">3</text>
<line x1="264.29" y1="55" x2="264.29" y2="305" stroke="#f3f4f6" stroke-width="1"/>
<text x="264.29" y="325" text-anchor="middle" font-size="11" font-family="Arial, sans-serif" fill="#4b5563">4</text>
<line x1="312.86" y1="55" x2="312.86" y2="305" stroke="#f3f4f6" stroke-width="1"/>
<text x="312.86" y="325" text-anchor="middle" font-size="11" font-family="Arial, sans-serif" fill="#4b5563">5</text>
<line x1="361.43" y1="55" x2="361.43" y2="305" stroke="#f3f4f6" stroke-width="1"/>
<text x="361.43" y="325" text-anchor="middle" font-size="11" font-family="Arial, sans-serif" fill="#4b5563">6</text>
<line x1="410.00" y1="55" x2="410.00" y2="305" stroke="#f3f4f6" stroke-width="1"/>
<text x="410.00" y="325" text-anchor="middle" font-size="11" font-family="Arial, sans-serif" fill="#4b5563">7</text>
<line x1="70" y1="305" x2="410" y2="305" stroke="#111827" stroke-width="1.5"/>
<line x1="70" y1="55" x2="70" y2="305" stroke="#111827" stroke-width="1.5"/>
<text x="240.00" y="353" text-anchor="middle" font-size="12" font-family="Arial, sans-serif" fill="#111827">EM iteration</text>
<text x="22" y="180.00" text-anchor="middle" transform="rotate(-90 22 180.00)" font-size="12" font-family="Arial, sans-serif" fill="#111827">theta estimate</text>
<polyline fill="none" stroke="#c2410c" stroke-width="2" stroke-dasharray="7 5" points="70.00,69.08 410.00,69.08"/>
<polyline fill="none" stroke="#0f766e" stroke-width="4" points="70.00,286.10 118.57,148.60 167.14,111.76 215.71,101.77 264.29,99.04 312.86,98.30 361.43,98.10 410.00,98.04"/>
<circle cx="70.00" cy="286.10" r="4" fill="#c2410c"/>
<text x="70.00" y="276.10" text-anchor="middle" font-size="10" font-family="Arial, sans-serif" fill="#7c2d12">0.900</text>
<circle cx="118.57" cy="148.60" r="4" fill="#c2410c"/>
<text x="118.57" y="138.60" text-anchor="middle" font-size="10" font-family="Arial, sans-serif" fill="#7c2d12">1.185</text>
<circle cx="167.14" cy="111.76" r="4" fill="#c2410c"/>
<text x="167.14" y="101.76" text-anchor="middle" font-size="10" font-family="Arial, sans-serif" fill="#7c2d12"></text>
<circle cx="215.71" cy="101.77" r="4" fill="#c2410c"/>
<text x="215.71" y="91.77" text-anchor="middle" font-size="10" font-family="Arial, sans-serif" fill="#7c2d12">1.282</text>
<circle cx="264.29" cy="99.04" r="4" fill="#c2410c"/>
<text x="264.29" y="89.04" text-anchor="middle" font-size="10" font-family="Arial, sans-serif" fill="#7c2d12"></text>
<circle cx="312.86" cy="98.30" r="4" fill="#c2410c"/>
<text x="312.86" y="88.30" text-anchor="middle" font-size="10" font-family="Arial, sans-serif" fill="#7c2d12"></text>
<circle cx="361.43" cy="98.10" r="4" fill="#c2410c"/>
<text x="361.43" y="88.10" text-anchor="middle" font-size="10" font-family="Arial, sans-serif" fill="#7c2d12"></text>
<circle cx="410.00" cy="98.04" r="4" fill="#c2410c"/>
<text x="410.00" y="88.04" text-anchor="middle" font-size="10" font-family="Arial, sans-serif" fill="#7c2d12">1.290</text>
<text x="361" y="82" font-size="11" font-family="Arial, sans-serif" fill="#7c2d12">true theta = 1.35</text>
<text x="490" y="41" font-size="16" font-family="Arial, sans-serif" fill="#111827">E-step fit metric</text>
<line x1="490" y1="258.41" x2="830" y2="258.41" stroke="#e5e7eb" stroke-width="1"/>
<text x="480" y="262.41" text-anchor="end" font-size="11" font-family="Arial, sans-serif" fill="#4b5563">16</text>
<line x1="490" y1="183.73" x2="830" y2="183.73" stroke="#e5e7eb" stroke-width="1"/>
<text x="480" y="187.73" text-anchor="end" font-size="11" font-family="Arial, sans-serif" fill="#4b5563">18</text>
<line x1="490" y1="109.06" x2="830" y2="109.06" stroke="#e5e7eb" stroke-width="1"/>
<text x="480" y="113.06" text-anchor="end" font-size="11" font-family="Arial, sans-serif" fill="#4b5563">20</text>
<line x1="490" y1="71.73" x2="830" y2="71.73" stroke="#e5e7eb" stroke-width="1"/>
<text x="480" y="75.73" text-anchor="end" font-size="11" font-family="Arial, sans-serif" fill="#4b5563">21</text>
<line x1="490.00" y1="55" x2="490.00" y2="305" stroke="#f3f4f6" stroke-width="1"/>
<text x="490.00" y="325" text-anchor="middle" font-size="11" font-family="Arial, sans-serif" fill="#4b5563">0</text>
<line x1="538.57" y1="55" x2="538.57" y2="305" stroke="#f3f4f6" stroke-width="1"/>
<text x="538.57" y="325" text-anchor="middle" font-size="11" font-family="Arial, sans-serif" fill="#4b5563">1</text>
<line x1="587.14" y1="55" x2="587.14" y2="305" stroke="#f3f4f6" stroke-width="1"/>
<text x="587.14" y="325" text-anchor="middle" font-size="11" font-family="Arial, sans-serif" fill="#4b5563">2</text>
<line x1="635.71" y1="55" x2="635.71" y2="305" stroke="#f3f4f6" stroke-width="1"/>
<text x="635.71" y="325" text-anchor="middle" font-size="11" font-family="Arial, sans-serif" fill="#4b5563">3</text>
<line x1="684.29" y1="55" x2="684.29" y2="305" stroke="#f3f4f6" stroke-width="1"/>
<text x="684.29" y="325" text-anchor="middle" font-size="11" font-family="Arial, sans-serif" fill="#4b5563">4</text>
<line x1="732.86" y1="55" x2="732.86" y2="305" stroke="#f3f4f6" stroke-width="1"/>
<text x="732.86" y="325" text-anchor="middle" font-size="11" font-family="Arial, sans-serif" fill="#4b5563">5</text>
<line x1="781.43" y1="55" x2="781.43" y2="305" stroke="#f3f4f6" stroke-width="1"/>
<text x="781.43" y="325" text-anchor="middle" font-size="11" font-family="Arial, sans-serif" fill="#4b5563">6</text>
<line x1="830.00" y1="55" x2="830.00" y2="305" stroke="#f3f4f6" stroke-width="1"/>
<text x="830.00" y="325" text-anchor="middle" font-size="11" font-family="Arial, sans-serif" fill="#4b5563">7</text>
<line x1="490" y1="305" x2="830" y2="305" stroke="#111827" stroke-width="1.5"/>
<line x1="490" y1="55" x2="490" y2="305" stroke="#111827" stroke-width="1.5"/>
<text x="660.00" y="353" text-anchor="middle" font-size="12" font-family="Arial, sans-serif" fill="#111827">EM iteration</text>
<text x="442" y="180.00" text-anchor="middle" transform="rotate(-90 442 180.00)" font-size="12" font-family="Arial, sans-serif" fill="#111827">innovation log-likelihood</text>
<polyline fill="none" stroke="#1d4ed8" stroke-width="4" points="490.00,285.38 538.57,93.62 587.14,73.34 635.71,70.11 684.29,69.40 732.86,69.22 781.43,69.17 830.00,69.15"/>
<circle cx="490.00" cy="285.38" r="4" fill="#c2410c"/>
<text x="490.00" y="275.38" text-anchor="middle" font-size="10" font-family="Arial, sans-serif" fill="#7c2d12">15.28</text>
<circle cx="538.57" cy="93.62" r="4" fill="#c2410c"/>
<text x="538.57" y="83.62" text-anchor="middle" font-size="10" font-family="Arial, sans-serif" fill="#7c2d12">20.41</text>
<circle cx="587.14" cy="73.34" r="4" fill="#c2410c"/>
<text x="587.14" y="63.34" text-anchor="middle" font-size="10" font-family="Arial, sans-serif" fill="#7c2d12"></text>
<circle cx="635.71" cy="70.11" r="4" fill="#c2410c"/>
<text x="635.71" y="60.11" text-anchor="middle" font-size="10" font-family="Arial, sans-serif" fill="#7c2d12">21.04</text>
<circle cx="684.29" cy="69.40" r="4" fill="#c2410c"/>
<text x="684.29" y="59.40" text-anchor="middle" font-size="10" font-family="Arial, sans-serif" fill="#7c2d12"></text>
<circle cx="732.86" cy="69.22" r="4" fill="#c2410c"/>
<text x="732.86" y="59.22" text-anchor="middle" font-size="10" font-family="Arial, sans-serif" fill="#7c2d12"></text>
<circle cx="781.43" cy="69.17" r="4" fill="#c2410c"/>
<text x="781.43" y="59.17" text-anchor="middle" font-size="10" font-family="Arial, sans-serif" fill="#7c2d12"></text>
<circle cx="830.00" cy="69.15" r="4" fill="#c2410c"/>
<text x="830.00" y="59.15" text-anchor="middle" font-size="10" font-family="Arial, sans-serif" fill="#7c2d12">21.07</text>
<text x="490" y="340" font-size="12" font-family="Arial, sans-serif" fill="#4b5563">Left: M-step theta update. Right: EKF innovation log-likelihood from the E-step.</text>
</svg>