<svg xmlns="http://www.w3.org/2000/svg" width="900" height="440" viewBox="0 0 900 440">
<rect width="100%" height="100%" fill="#fffdf8"/>
<text x="70" y="24" font-size="18" font-family="Arial, sans-serif" fill="#111827">The smoother recovers the hidden trajectory from position-only observations</text>
<text x="70" y="41" font-size="16" font-family="Arial, sans-serif" fill="#111827">Position reconstruction</text>
<line x1="70" y1="180.75" x2="830" y2="180.75" stroke="#e5e7eb" stroke-width="1"/>
<text x="60" y="184.75" text-anchor="end" font-size="11" font-family="Arial, sans-serif" fill="#4b5563">-2</text>
<line x1="70" y1="147.46" x2="830" y2="147.46" stroke="#e5e7eb" stroke-width="1"/>
<text x="60" y="151.46" text-anchor="end" font-size="11" font-family="Arial, sans-serif" fill="#4b5563">-1</text>
<line x1="70" y1="114.18" x2="830" y2="114.18" stroke="#e5e7eb" stroke-width="1"/>
<text x="60" y="118.18" text-anchor="end" font-size="11" font-family="Arial, sans-serif" fill="#4b5563">0</text>
<line x1="70" y1="80.89" x2="830" y2="80.89" stroke="#e5e7eb" stroke-width="1"/>
<text x="60" y="84.89" text-anchor="end" font-size="11" font-family="Arial, sans-serif" fill="#4b5563">1</text>
<line x1="70.00" y1="55" x2="70.00" y2="190" stroke="#f3f4f6" stroke-width="1"/>
<text x="70.00" y="210" text-anchor="middle" font-size="11" font-family="Arial, sans-serif" fill="#4b5563">0</text>
<line x1="260.00" y1="55" x2="260.00" y2="190" stroke="#f3f4f6" stroke-width="1"/>
<text x="260.00" y="210" text-anchor="middle" font-size="11" font-family="Arial, sans-serif" fill="#4b5563">10</text>
<line x1="450.00" y1="55" x2="450.00" y2="190" stroke="#f3f4f6" stroke-width="1"/>
<text x="450.00" y="210" text-anchor="middle" font-size="11" font-family="Arial, sans-serif" fill="#4b5563">20</text>
<line x1="640.00" y1="55" x2="640.00" y2="190" stroke="#f3f4f6" stroke-width="1"/>
<text x="640.00" y="210" text-anchor="middle" font-size="11" font-family="Arial, sans-serif" fill="#4b5563">30</text>
<line x1="830.00" y1="55" x2="830.00" y2="190" stroke="#f3f4f6" stroke-width="1"/>
<text x="830.00" y="210" text-anchor="middle" font-size="11" font-family="Arial, sans-serif" fill="#4b5563">40</text>
<line x1="70" y1="190" x2="830" y2="190" stroke="#111827" stroke-width="1.5"/>
<line x1="70" y1="55" x2="70" y2="190" stroke="#111827" stroke-width="1.5"/>
<text x="450.00" y="238" text-anchor="middle" font-size="12" font-family="Arial, sans-serif" fill="#111827">time index k</text>
<text x="22" y="122.50" text-anchor="middle" transform="rotate(-90 22 122.50)" font-size="12" font-family="Arial, sans-serif" fill="#111827">position q_k</text>
<polyline fill="none" stroke="#0f766e" stroke-width="3" points="70.00,77.57 89.00,78.17 108.00,80.24 127.00,83.34 146.00,86.25 165.00,90.85 184.00,95.81 203.00,101.75 222.00,108.44 241.00,114.55 260.00,122.70 279.00,129.56 298.00,136.56 317.00,143.66 336.00,150.24 355.00,155.94 374.00,160.74 393.00,165.18 412.00,169.00 431.00,172.06 450.00,174.38 469.00,176.39 488.00,178.39 507.00,180.03 526.00,180.71 545.00,180.29 564.00,178.08 583.00,174.85 602.00,170.32 621.00,163.89 640.00,156.62 659.00,148.30 678.00,139.62 697.00,130.77 716.00,122.20 735.00,112.35 754.00,103.36 773.00,94.03 792.00,84.21 811.00,74.05 830.00,63.81"/>
<polyline fill="none" stroke="#1d4ed8" stroke-width="3" points="70.00,78.59 89.00,79.07 108.00,80.47 127.00,82.80 146.00,85.98 165.00,89.97 184.00,94.66 203.00,100.08 222.00,105.93 241.00,112.46 260.00,119.44 279.00,126.71 298.00,134.10 317.00,141.53 336.00,148.82 355.00,155.73 374.00,162.06 393.00,167.60 412.00,172.18 431.00,175.69 450.00,178.07 469.00,179.30 488.00,179.39 507.00,178.38 526.00,176.26 545.00,172.99 564.00,168.47 583.00,162.61 602.00,155.36 621.00,146.82 640.00,137.24 659.00,127.05 678.00,116.77 697.00,106.87 716.00,97.63 735.00,89.05 754.00,81.09 773.00,73.80 792.00,67.36 811.00,62.21 830.00,60.45"/>
<circle cx="70.00" cy="79.28" r="2.6" fill="#c2410c" opacity="0.85"/>
<circle cx="89.00" cy="79.38" r="2.6" fill="#c2410c" opacity="0.85"/>
<circle cx="108.00" cy="78.83" r="2.6" fill="#c2410c" opacity="0.85"/>
<circle cx="127.00" cy="83.82" r="2.6" fill="#c2410c" opacity="0.85"/>
<circle cx="146.00" cy="87.04" r="2.6" fill="#c2410c" opacity="0.85"/>
<circle cx="165.00" cy="95.29" r="2.6" fill="#c2410c" opacity="0.85"/>
<circle cx="184.00" cy="95.85" r="2.6" fill="#c2410c" opacity="0.85"/>
<circle cx="203.00" cy="103.52" r="2.6" fill="#c2410c" opacity="0.85"/>
<circle cx="222.00" cy="111.79" r="2.6" fill="#c2410c" opacity="0.85"/>
<circle cx="241.00" cy="114.15" r="2.6" fill="#c2410c" opacity="0.85"/>
<circle cx="260.00" cy="124.56" r="2.6" fill="#c2410c" opacity="0.85"/>
<circle cx="279.00" cy="134.89" r="2.6" fill="#c2410c" opacity="0.85"/>
<circle cx="298.00" cy="138.97" r="2.6" fill="#c2410c" opacity="0.85"/>
<circle cx="317.00" cy="140.49" r="2.6" fill="#c2410c" opacity="0.85"/>
<circle cx="336.00" cy="146.77" r="2.6" fill="#c2410c" opacity="0.85"/>
<circle cx="355.00" cy="156.10" r="2.6" fill="#c2410c" opacity="0.85"/>
<circle cx="374.00" cy="162.99" r="2.6" fill="#c2410c" opacity="0.85"/>
<circle cx="393.00" cy="173.26" r="2.6" fill="#c2410c" opacity="0.85"/>
<circle cx="412.00" cy="168.16" r="2.6" fill="#c2410c" opacity="0.85"/>
<circle cx="431.00" cy="173.56" r="2.6" fill="#c2410c" opacity="0.85"/>
<circle cx="450.00" cy="172.47" r="2.6" fill="#c2410c" opacity="0.85"/>
<circle cx="469.00" cy="173.24" r="2.6" fill="#c2410c" opacity="0.85"/>
<circle cx="488.00" cy="184.89" r="2.6" fill="#c2410c" opacity="0.85"/>
<circle cx="507.00" cy="178.57" r="2.6" fill="#c2410c" opacity="0.85"/>
<circle cx="526.00" cy="178.90" r="2.6" fill="#c2410c" opacity="0.85"/>
<circle cx="545.00" cy="174.18" r="2.6" fill="#c2410c" opacity="0.85"/>
<circle cx="564.00" cy="178.47" r="2.6" fill="#c2410c" opacity="0.85"/>
<circle cx="583.00" cy="173.86" r="2.6" fill="#c2410c" opacity="0.85"/>
<circle cx="602.00" cy="169.09" r="2.6" fill="#c2410c" opacity="0.85"/>
<circle cx="621.00" cy="163.93" r="2.6" fill="#c2410c" opacity="0.85"/>
<circle cx="640.00" cy="152.14" r="2.6" fill="#c2410c" opacity="0.85"/>
<circle cx="659.00" cy="144.34" r="2.6" fill="#c2410c" opacity="0.85"/>
<circle cx="678.00" cy="143.19" r="2.6" fill="#c2410c" opacity="0.85"/>
<circle cx="697.00" cy="133.50" r="2.6" fill="#c2410c" opacity="0.85"/>
<circle cx="716.00" cy="124.07" r="2.6" fill="#c2410c" opacity="0.85"/>
<circle cx="735.00" cy="105.23" r="2.6" fill="#c2410c" opacity="0.85"/>
<circle cx="754.00" cy="109.79" r="2.6" fill="#c2410c" opacity="0.85"/>
<circle cx="773.00" cy="94.68" r="2.6" fill="#c2410c" opacity="0.85"/>
<circle cx="792.00" cy="84.49" r="2.6" fill="#c2410c" opacity="0.85"/>
<circle cx="811.00" cy="73.37" r="2.6" fill="#c2410c" opacity="0.85"/>
<circle cx="830.00" cy="59.75" r="2.6" fill="#c2410c" opacity="0.85"/>
<rect x="630" y="72" width="180" height="64" rx="8" fill="#ffffff" stroke="#e5e7eb"/>
<line x1="640" y1="90" x2="664" y2="90" stroke="#0f766e" stroke-width="3"/>
<text x="672" y="94" font-size="11" font-family="Arial, sans-serif" fill="#111827">true position</text>
<line x1="640" y1="108" x2="664" y2="108" stroke="#1d4ed8" stroke-width="3"/>
<text x="672" y="112" font-size="11" font-family="Arial, sans-serif" fill="#111827">smoothed position</text>
<line x1="640" y1="126" x2="664" y2="126" stroke="#c2410c" stroke-width="3"/>
<text x="672" y="130" font-size="11" font-family="Arial, sans-serif" fill="#111827">noisy observations</text>
<text x="70" y="208" font-size="12" font-family="Arial, sans-serif" fill="#4b5563">Position RMSE drops from 0.097 for the raw observations to 0.024 after smoothing.</text>
<text x="70" y="231" font-size="16" font-family="Arial, sans-serif" fill="#111827">Latent velocity reconstruction</text>
<line x1="70" y1="354.11" x2="830" y2="354.11" stroke="#e5e7eb" stroke-width="1"/>
<text x="60" y="358.11" text-anchor="end" font-size="11" font-family="Arial, sans-serif" fill="#4b5563">-1</text>
<line x1="70" y1="320.82" x2="830" y2="320.82" stroke="#e5e7eb" stroke-width="1"/>
<text x="60" y="324.82" text-anchor="end" font-size="11" font-family="Arial, sans-serif" fill="#4b5563">0</text>
<line x1="70" y1="287.54" x2="830" y2="287.54" stroke="#e5e7eb" stroke-width="1"/>
<text x="60" y="291.54" text-anchor="end" font-size="11" font-family="Arial, sans-serif" fill="#4b5563">1</text>
<line x1="70" y1="254.25" x2="830" y2="254.25" stroke="#e5e7eb" stroke-width="1"/>
<text x="60" y="258.25" text-anchor="end" font-size="11" font-family="Arial, sans-serif" fill="#4b5563">2</text>
<line x1="70.00" y1="245" x2="70.00" y2="380" stroke="#f3f4f6" stroke-width="1"/>
<text x="70.00" y="400" text-anchor="middle" font-size="11" font-family="Arial, sans-serif" fill="#4b5563">0</text>
<line x1="260.00" y1="245" x2="260.00" y2="380" stroke="#f3f4f6" stroke-width="1"/>
<text x="260.00" y="400" text-anchor="middle" font-size="11" font-family="Arial, sans-serif" fill="#4b5563">10</text>
<line x1="450.00" y1="245" x2="450.00" y2="380" stroke="#f3f4f6" stroke-width="1"/>
<text x="450.00" y="400" text-anchor="middle" font-size="11" font-family="Arial, sans-serif" fill="#4b5563">20</text>
<line x1="640.00" y1="245" x2="640.00" y2="380" stroke="#f3f4f6" stroke-width="1"/>
<text x="640.00" y="400" text-anchor="middle" font-size="11" font-family="Arial, sans-serif" fill="#4b5563">30</text>
<line x1="830.00" y1="245" x2="830.00" y2="380" stroke="#f3f4f6" stroke-width="1"/>
<text x="830.00" y="400" text-anchor="middle" font-size="11" font-family="Arial, sans-serif" fill="#4b5563">40</text>
<line x1="70" y1="380" x2="830" y2="380" stroke="#111827" stroke-width="1.5"/>
<line x1="70" y1="245" x2="70" y2="380" stroke="#111827" stroke-width="1.5"/>
<text x="450.00" y="428" text-anchor="middle" font-size="12" font-family="Arial, sans-serif" fill="#111827">time index k</text>
<text x="22" y="312.50" text-anchor="middle" transform="rotate(-90 22 312.50)" font-size="12" font-family="Arial, sans-serif" fill="#111827">velocity v_k</text>
<polyline fill="none" stroke="#7c3aed" stroke-width="3" points="70.00,325.81 89.00,331.70 108.00,338.14 127.00,344.70 146.00,349.40 165.00,355.08 184.00,357.35 203.00,359.78 222.00,363.37 241.00,369.73 260.00,372.13 279.00,370.57 298.00,370.04 317.00,367.95 336.00,363.77 355.00,359.19 374.00,354.59 393.00,348.68 412.00,341.64 431.00,332.51 450.00,323.06 469.00,310.86 488.00,298.26 507.00,287.16 526.00,278.19 545.00,271.82 564.00,265.91 583.00,260.31 602.00,256.40 621.00,252.57 640.00,253.25 659.00,257.28 678.00,262.76 697.00,270.01 716.00,277.99 735.00,286.31 754.00,295.13 773.00,304.99 792.00,316.91 811.00,329.21 830.00,341.08"/>
<polyline fill="none" stroke="#b91c1c" stroke-width="3" points="70.00,324.27 89.00,330.33 108.00,336.36 127.00,342.15 146.00,347.64 165.00,352.77 184.00,357.72 203.00,362.37 222.00,366.62 241.00,370.06 260.00,372.36 279.00,373.40 298.00,373.11 317.00,371.52 336.00,368.67 355.00,364.63 374.00,359.51 393.00,353.43 412.00,346.56 431.00,339.09 450.00,331.20 469.00,323.03 488.00,314.78 507.00,306.63 526.00,298.75 545.00,291.36 564.00,284.63 583.00,278.79 602.00,274.03 621.00,270.56 640.00,268.55 659.00,268.14 678.00,269.34 697.00,272.07 716.00,276.18 735.00,281.53 754.00,287.98 773.00,295.52 792.00,304.18 811.00,314.02 830.00,324.83"/>
<rect x="650" y="262" width="180" height="46" rx="8" fill="#ffffff" stroke="#e5e7eb"/>
<line x1="660" y1="280" x2="684" y2="280" stroke="#7c3aed" stroke-width="3"/>
<text x="692" y="284" font-size="11" font-family="Arial, sans-serif" fill="#111827">true velocity</text>
<line x1="660" y1="298" x2="684" y2="298" stroke="#b91c1c" stroke-width="3"/>
<text x="692" y="302" font-size="11" font-family="Arial, sans-serif" fill="#111827">smoothed velocity</text>
<text x="70" y="416" font-size="12" font-family="Arial, sans-serif" fill="#4b5563">Final estimate: theta = 1.290 while the true parameter is 1.35.</text>
</svg>
