<svg xmlns="http://www.w3.org/2000/svg" width="820" height="360" viewBox="0 0 820 360">
<rect width="100%" height="100%" fill="#fffdf8"/>
<text x="80" y="22" font-size="18" font-family="Arial, sans-serif" fill="#1f2937">MAP objective drops sharply in the first Gauss-Newton step</text>
<line x1="80" y1="285.00" x2="790" y2="285.00" stroke="#e5e7eb" stroke-width="1"/>
<text x="68" y="289.00" text-anchor="end" font-size="12" font-family="Arial, sans-serif" fill="#4b5563">0</text>
<line x1="80" y1="223.33" x2="790" y2="223.33" stroke="#e5e7eb" stroke-width="1"/>
<text x="68" y="227.33" text-anchor="end" font-size="12" font-family="Arial, sans-serif" fill="#4b5563">1000</text>
<line x1="80" y1="161.67" x2="790" y2="161.67" stroke="#e5e7eb" stroke-width="1"/>
<text x="68" y="165.67" text-anchor="end" font-size="12" font-family="Arial, sans-serif" fill="#4b5563">2000</text>
<line x1="80" y1="100.00" x2="790" y2="100.00" stroke="#e5e7eb" stroke-width="1"/>
<text x="68" y="104.00" text-anchor="end" font-size="12" font-family="Arial, sans-serif" fill="#4b5563">3000</text>
<line x1="80" y1="38.33" x2="790" y2="38.33" stroke="#e5e7eb" stroke-width="1"/>
<text x="68" y="42.33" text-anchor="end" font-size="12" font-family="Arial, sans-serif" fill="#4b5563">4000</text>
<line x1="80.00" y1="35" x2="80.00" y2="285" stroke="#f3f4f6" stroke-width="1"/>
<text x="80.00" y="309" text-anchor="middle" font-size="12" font-family="Arial, sans-serif" fill="#4b5563">0</text>
<line x1="257.50" y1="35" x2="257.50" y2="285" stroke="#f3f4f6" stroke-width="1"/>
<text x="257.50" y="309" text-anchor="middle" font-size="12" font-family="Arial, sans-serif" fill="#4b5563">1</text>
<line x1="435.00" y1="35" x2="435.00" y2="285" stroke="#f3f4f6" stroke-width="1"/>
<text x="435.00" y="309" text-anchor="middle" font-size="12" font-family="Arial, sans-serif" fill="#4b5563">2</text>
<line x1="612.50" y1="35" x2="612.50" y2="285" stroke="#f3f4f6" stroke-width="1"/>
<text x="612.50" y="309" text-anchor="middle" font-size="12" font-family="Arial, sans-serif" fill="#4b5563">3</text>
<line x1="790.00" y1="35" x2="790.00" y2="285" stroke="#f3f4f6" stroke-width="1"/>
<text x="790.00" y="309" text-anchor="middle" font-size="12" font-family="Arial, sans-serif" fill="#4b5563">4</text>
<line x1="80" y1="285" x2="790" y2="285" stroke="#111827" stroke-width="1.5"/>
<line x1="80" y1="35" x2="80" y2="285" stroke="#111827" stroke-width="1.5"/>
<polyline fill="none" stroke="#0f766e" stroke-width="4" points="80.00,39.90 257.50,284.08 435.00,284.08 612.50,284.08 790.00,284.08"/>
<circle cx="80.00" cy="39.90" r="4.5" fill="#c2410c"/>
<text x="80.00" y="29.90" text-anchor="middle" font-size="11" font-family="Arial, sans-serif" fill="#7c2d12">3974.5</text>
<circle cx="257.50" cy="284.08" r="4.5" fill="#c2410c"/>
<text x="257.50" y="274.08" text-anchor="middle" font-size="11" font-family="Arial, sans-serif" fill="#7c2d12">15.0</text>
<circle cx="435.00" cy="284.08" r="4.5" fill="#c2410c"/>
<text x="435.00" y="274.08" text-anchor="middle" font-size="11" font-family="Arial, sans-serif" fill="#7c2d12">14.9</text>
<circle cx="612.50" cy="284.08" r="4.5" fill="#c2410c"/>
<text x="612.50" y="274.08" text-anchor="middle" font-size="11" font-family="Arial, sans-serif" fill="#7c2d12">14.9</text>
<circle cx="790.00" cy="284.08" r="4.5" fill="#c2410c"/>
<text x="790.00" y="274.08" text-anchor="middle" font-size="11" font-family="Arial, sans-serif" fill="#7c2d12">14.9</text>
<text x="435.00" y="342" text-anchor="middle" font-size="13" font-family="Arial, sans-serif" fill="#111827">Gauss-Newton iteration</text>
<text x="20" y="160.00" text-anchor="middle" transform="rotate(-90 20 160.00)" font-size="13" font-family="Arial, sans-serif" fill="#111827">Objective J(x_0:N, theta)</text>
</svg>
