<svg xmlns="http://www.w3.org/2000/svg" width="860" height="520" viewBox="0 0 860 520">
<rect width="100%" height="100%" fill="#fffdf8"/>
<text x="78" y="24" font-size="18" font-family="Arial, sans-serif" fill="#1f2937">MAP reconstruction follows the latent trajectory; Laplace adds a local parameter spread</text>
<line x1="78" y1="40.00" x2="832" y2="40.00" stroke="#e5e7eb" stroke-width="1"/>
<text x="66" y="44.00" text-anchor="end" font-size="12" font-family="Arial, sans-serif" fill="#4b5563">1.6</text>
<line x1="78" y1="96.00" x2="832" y2="96.00" stroke="#e5e7eb" stroke-width="1"/>
<text x="66" y="100.00" text-anchor="end" font-size="12" font-family="Arial, sans-serif" fill="#4b5563">0.9</text>
<line x1="78" y1="152.00" x2="832" y2="152.00" stroke="#e5e7eb" stroke-width="1"/>
<text x="66" y="156.00" text-anchor="end" font-size="12" font-family="Arial, sans-serif" fill="#4b5563">0.2</text>
<line x1="78" y1="208.00" x2="832" y2="208.00" stroke="#e5e7eb" stroke-width="1"/>
<text x="66" y="212.00" text-anchor="end" font-size="12" font-family="Arial, sans-serif" fill="#4b5563">-0.5</text>
<line x1="78" y1="264.00" x2="832" y2="264.00" stroke="#e5e7eb" stroke-width="1"/>
<text x="66" y="268.00" text-anchor="end" font-size="12" font-family="Arial, sans-serif" fill="#4b5563">-1.2</text>
<line x1="78" y1="320.00" x2="832" y2="320.00" stroke="#e5e7eb" stroke-width="1"/>
<text x="66" y="324.00" text-anchor="end" font-size="12" font-family="Arial, sans-serif" fill="#4b5563">-1.9</text>
<line x1="78.00" y1="40" x2="78.00" y2="320" stroke="#f3f4f6" stroke-width="1"/>
<text x="78.00" y="344" text-anchor="middle" font-size="12" font-family="Arial, sans-serif" fill="#4b5563">0.0</text>
<line x1="266.50" y1="40" x2="266.50" y2="320" stroke="#f3f4f6" stroke-width="1"/>
<text x="266.50" y="344" text-anchor="middle" font-size="12" font-family="Arial, sans-serif" fill="#4b5563">1.5</text>
<line x1="455.00" y1="40" x2="455.00" y2="320" stroke="#f3f4f6" stroke-width="1"/>
<text x="455.00" y="344" text-anchor="middle" font-size="12" font-family="Arial, sans-serif" fill="#4b5563">3.0</text>
<line x1="643.50" y1="40" x2="643.50" y2="320" stroke="#f3f4f6" stroke-width="1"/>
<text x="643.50" y="344" text-anchor="middle" font-size="12" font-family="Arial, sans-serif" fill="#4b5563">4.5</text>
<line x1="832.00" y1="40" x2="832.00" y2="320" stroke="#f3f4f6" stroke-width="1"/>
<text x="832.00" y="344" text-anchor="middle" font-size="12" font-family="Arial, sans-serif" fill="#4b5563">6.0</text>
<line x1="78" y1="320" x2="832" y2="320" stroke="#111827" stroke-width="1.5"/>
<line x1="78" y1="40" x2="78" y2="320" stroke="#111827" stroke-width="1.5"/>
<polyline fill="none" stroke="#1d4ed8" stroke-width="3" points="78.00,81.68 96.85,83.49 115.70,87.49 134.55,94.64 153.40,104.08 172.25,114.65 191.10,126.20 209.95,139.17 228.80,154.17 247.65,170.68 266.50,188.46 285.35,207.05 304.20,224.27 323.05,238.07 341.90,253.46 360.75,264.27 379.60,274.43 398.45,281.95 417.30,285.29 436.15,288.22 455.00,288.47 473.85,285.57 492.70,281.85 511.55,272.62 530.40,263.26 549.25,253.44 568.10,238.00 586.95,222.77 605.80,205.83 624.65,186.97 643.50,165.04 662.35,145.21 681.20,126.52 700.05,111.00 718.90,95.52 737.75,83.58 756.60,72.29 775.45,66.67 794.30,61.50 813.15,60.00 832.00,61.21"/>
<polyline fill="none" stroke="#0f766e" stroke-width="3" stroke-dasharray="10 6" points="78.00,84.67 96.85,85.91 115.70,89.46 134.55,95.39 153.40,103.49 172.25,113.56 191.10,125.26 209.95,138.64 228.80,153.44 247.65,169.66 266.50,186.79 285.35,204.17 304.20,221.31 323.05,237.46 341.90,252.40 360.75,265.46 379.60,276.39 398.45,284.59 417.30,290.14 436.15,292.62 455.00,291.97 473.85,288.58 492.70,282.53 511.55,274.17 530.40,264.04 549.25,251.67 568.10,237.19 586.95,221.01 605.80,203.51 624.65,185.00 643.50,166.02 662.35,147.38 681.20,129.64 700.05,113.03 718.90,98.16 737.75,85.37 756.60,74.71 775.45,66.57 794.30,60.79 813.15,57.73 832.00,57.18"/>
<circle cx="78.00" cy="85.82" r="3.4" fill="#c2410c" opacity="0.85"/>
<circle cx="96.85" cy="86.43" r="3.4" fill="#c2410c" opacity="0.85"/>
<circle cx="115.70" cy="84.08" r="3.4" fill="#c2410c" opacity="0.85"/>
<circle cx="134.55" cy="95.81" r="3.4" fill="#c2410c" opacity="0.85"/>
<circle cx="153.40" cy="105.99" r="3.4" fill="#c2410c" opacity="0.85"/>
<circle cx="172.25" cy="125.43" r="3.4" fill="#c2410c" opacity="0.85"/>
<circle cx="191.10" cy="126.32" r="3.4" fill="#c2410c" opacity="0.85"/>
<circle cx="209.95" cy="143.46" r="3.4" fill="#c2410c" opacity="0.85"/>
<circle cx="228.80" cy="142.89" r="3.4" fill="#c2410c" opacity="0.85"/>
<circle cx="247.65" cy="164.36" r="3.4" fill="#c2410c" opacity="0.85"/>
<circle cx="266.50" cy="188.69" r="3.4" fill="#c2410c" opacity="0.85"/>
<circle cx="285.35" cy="200.59" r="3.4" fill="#c2410c" opacity="0.85"/>
<circle cx="304.20" cy="227.56" r="3.4" fill="#c2410c" opacity="0.85"/>
<circle cx="323.05" cy="227.89" r="3.4" fill="#c2410c" opacity="0.85"/>
<circle cx="341.90" cy="253.51" r="3.4" fill="#c2410c" opacity="0.85"/>
<circle cx="360.75" cy="258.63" r="3.4" fill="#c2410c" opacity="0.85"/>
<circle cx="379.60" cy="286.92" r="3.4" fill="#c2410c" opacity="0.85"/>
<circle cx="398.45" cy="278.60" r="3.4" fill="#c2410c" opacity="0.85"/>
<circle cx="417.30" cy="301.62" r="3.4" fill="#c2410c" opacity="0.85"/>
<circle cx="436.15" cy="307.91" r="3.4" fill="#c2410c" opacity="0.85"/>
<circle cx="455.00" cy="291.42" r="3.4" fill="#c2410c" opacity="0.85"/>
<circle cx="473.85" cy="294.27" r="3.4" fill="#c2410c" opacity="0.85"/>
<circle cx="492.70" cy="280.26" r="3.4" fill="#c2410c" opacity="0.85"/>
<circle cx="511.55" cy="250.90" r="3.4" fill="#c2410c" opacity="0.85"/>
<circle cx="530.40" cy="271.30" r="3.4" fill="#c2410c" opacity="0.85"/>
<circle cx="549.25" cy="259.48" r="3.4" fill="#c2410c" opacity="0.85"/>
<circle cx="568.10" cy="236.01" r="3.4" fill="#c2410c" opacity="0.85"/>
<circle cx="586.95" cy="218.00" r="3.4" fill="#c2410c" opacity="0.85"/>
<circle cx="605.80" cy="207.53" r="3.4" fill="#c2410c" opacity="0.85"/>
<circle cx="624.65" cy="188.97" r="3.4" fill="#c2410c" opacity="0.85"/>
<circle cx="643.50" cy="158.25" r="3.4" fill="#c2410c" opacity="0.85"/>
<circle cx="662.35" cy="140.18" r="3.4" fill="#c2410c" opacity="0.85"/>
<circle cx="681.20" cy="136.52" r="3.4" fill="#c2410c" opacity="0.85"/>
<circle cx="700.05" cy="111.77" r="3.4" fill="#c2410c" opacity="0.85"/>
<circle cx="718.90" cy="95.17" r="3.4" fill="#c2410c" opacity="0.85"/>
<circle cx="737.75" cy="93.78" r="3.4" fill="#c2410c" opacity="0.85"/>
<circle cx="756.60" cy="69.78" r="3.4" fill="#c2410c" opacity="0.85"/>
<circle cx="775.45" cy="74.97" r="3.4" fill="#c2410c" opacity="0.85"/>
<circle cx="794.30" cy="52.09" r="3.4" fill="#c2410c" opacity="0.85"/>
<circle cx="813.15" cy="58.14" r="3.4" fill="#c2410c" opacity="0.85"/>
<circle cx="832.00" cy="60.34" r="3.4" fill="#c2410c" opacity="0.85"/>
<line x1="458" y1="58" x2="493" y2="58" stroke="#1d4ed8" stroke-width="3"/>
<text x="500" y="62" font-size="12" font-family="Arial, sans-serif" fill="#111827">true q_k</text>
<line x1="578" y1="58" x2="613" y2="58" stroke="#0f766e" stroke-width="3" stroke-dasharray="10 6"/>
<text x="620" y="62" font-size="12" font-family="Arial, sans-serif" fill="#111827">MAP q_k</text>
<circle cx="742" cy="58" r="3.4" fill="#c2410c"/>
<text x="754" y="62" font-size="12" font-family="Arial, sans-serif" fill="#111827">observed y_k</text>
<text x="20" y="180.00" text-anchor="middle" transform="rotate(-90 20 180.00)" font-size="13" font-family="Arial, sans-serif" fill="#111827">position q_k</text>
<text x="455.00" y="368" text-anchor="middle" font-size="13" font-family="Arial, sans-serif" fill="#111827">time</text>
<text x="78" y="354" font-size="15" font-family="Arial, sans-serif" fill="#1f2937">Local Laplace parameter marginal</text>
<line x1="78.00" y1="370" x2="78.00" y2="480" stroke="#f3f4f6" stroke-width="1"/>
<text x="78.00" y="502" text-anchor="middle" font-size="12" font-family="Arial, sans-serif" fill="#4b5563">0.92</text>
<line x1="228.80" y1="370" x2="228.80" y2="480" stroke="#f3f4f6" stroke-width="1"/>
<text x="228.80" y="502" text-anchor="middle" font-size="12" font-family="Arial, sans-serif" fill="#4b5563">1.10</text>
<line x1="379.60" y1="370" x2="379.60" y2="480" stroke="#f3f4f6" stroke-width="1"/>
<text x="379.60" y="502" text-anchor="middle" font-size="12" font-family="Arial, sans-serif" fill="#4b5563">1.28</text>
<line x1="530.40" y1="370" x2="530.40" y2="480" stroke="#f3f4f6" stroke-width="1"/>
<text x="530.40" y="502" text-anchor="middle" font-size="12" font-family="Arial, sans-serif" fill="#4b5563">1.46</text>
<line x1="681.20" y1="370" x2="681.20" y2="480" stroke="#f3f4f6" stroke-width="1"/>
<text x="681.20" y="502" text-anchor="middle" font-size="12" font-family="Arial, sans-serif" fill="#4b5563">1.63</text>
<line x1="832.00" y1="370" x2="832.00" y2="480" stroke="#f3f4f6" stroke-width="1"/>
<text x="832.00" y="502" text-anchor="middle" font-size="12" font-family="Arial, sans-serif" fill="#4b5563">1.81</text>
<line x1="78" y1="480" x2="832" y2="480" stroke="#111827" stroke-width="1.5"/>
<line x1="78" y1="370" x2="78" y2="480" stroke="#111827" stroke-width="1.5"/>
<polyline fill="none" stroke="#7c3aed" stroke-width="3" points="78.00,479.78 81.44,479.75 84.89,479.72 88.33,479.69 91.77,479.65 95.21,479.62 98.66,479.57 102.10,479.52 105.54,479.47 108.99,479.41 112.43,479.35 115.87,479.28 119.32,479.21 122.76,479.12 126.20,479.03 129.64,478.94 133.09,478.83 136.53,478.71 139.97,478.59 143.42,478.45 146.86,478.30 150.30,478.14 153.74,477.96 157.19,477.77 160.63,477.57 164.07,477.35 167.52,477.11 170.96,476.85 174.40,476.58 177.84,476.28 181.29,475.97 184.73,475.63 188.17,475.26 191.62,474.88 195.06,474.46 198.50,474.02 201.95,473.55 205.39,473.05 208.83,472.52 212.27,471.96 215.72,471.36 219.16,470.73 222.60,470.07 226.05,469.36 229.49,468.62 232.93,467.84 236.37,467.02 239.82,466.15 243.26,465.25 246.70,464.30 250.15,463.31 253.59,462.27 257.03,461.19 260.47,460.06 263.92,458.88 267.36,457.66 270.80,456.40 274.25,455.08 277.69,453.72 281.13,452.32 284.58,450.87 288.02,449.37 291.46,447.83 294.90,446.25 298.35,444.63 301.79,442.96 305.23,441.26 308.68,439.52 312.12,437.74 315.56,435.94 319.00,434.10 322.45,432.23 325.89,430.34 329.33,428.43 332.78,426.50 336.22,424.55 339.66,422.59 343.11,420.62 346.55,418.65 349.99,416.67 353.43,414.70 356.88,412.74 360.32,410.79 363.76,408.85 367.21,406.93 370.65,405.04 374.09,403.18 377.53,401.36 380.98,399.57 384.42,397.83 387.86,396.13 391.31,394.49 394.75,392.90 398.19,391.37 401.63,389.91 405.08,388.52 408.52,387.20 411.96,385.96 415.41,384.80 418.85,383.73 422.29,382.74 425.74,381.84 429.18,381.03 432.62,380.32 436.06,379.71 439.51,379.20 442.95,378.78 446.39,378.47 449.84,378.27 453.28,378.16 456.72,378.16 460.16,378.27 463.61,378.47 467.05,378.78 470.49,379.20 473.94,379.71 477.38,380.32 480.82,381.03 484.26,381.84 487.71,382.74 491.15,383.73 494.59,384.80 498.04,385.96 501.48,387.20 504.92,388.52 508.37,389.91 511.81,391.37 515.25,392.90 518.69,394.49 522.14,396.13 525.58,397.83 529.02,399.57 532.47,401.36 535.91,403.18 539.35,405.04 542.79,406.93 546.24,408.85 549.68,410.79 553.12,412.74 556.57,414.70 560.01,416.67 563.45,418.65 566.89,420.62 570.34,422.59 573.78,424.55 577.22,426.50 580.67,428.43 584.11,430.34 587.55,432.23 591.00,434.10 594.44,435.94 597.88,437.74 601.32,439.52 604.77,441.26 608.21,442.96 611.65,444.63 615.10,446.25 618.54,447.83 621.98,449.37 625.42,450.87 628.87,452.32 632.31,453.72 635.75,455.08 639.20,456.40 642.64,457.66 646.08,458.88 649.53,460.06 652.97,461.19 656.41,462.27 659.85,463.31 663.30,464.30 666.74,465.25 670.18,466.15 673.63,467.02 677.07,467.84 680.51,468.62 683.95,469.36 687.40,470.07 690.84,470.73 694.28,471.36 697.73,471.96 701.17,472.52 704.61,473.05 708.05,473.55 711.50,474.02 714.94,474.46 718.38,474.88 721.83,475.26 725.27,475.63 728.71,475.97 732.16,476.28 735.60,476.58 739.04,476.85 742.48,477.11 745.93,477.35 749.37,477.57 752.81,477.77 756.26,477.96 759.70,478.14 763.14,478.30 766.58,478.45 770.03,478.59 773.47,478.71 776.91,478.83 780.36,478.94 783.80,479.03 787.24,479.12 790.68,479.21 794.13,479.28 797.57,479.35 801.01,479.41 804.46,479.47 807.90,479.52 811.34,479.57 814.79,479.62 818.23,479.65 821.67,479.69 825.11,479.72 828.56,479.75 832.00,479.78"/>
<line x1="455.00" y1="370" x2="455.00" y2="480" stroke="#0f766e" stroke-width="2.5" stroke-dasharray="8 6"/>
<text x="461.00" y="362" font-size="12" font-family="Arial, sans-serif" fill="#0f766e">theta_MAP = 1.37</text>
<line x1="440.57" y1="370" x2="440.57" y2="480" stroke="#1d4ed8" stroke-width="2.5" stroke-dasharray="8 6"/>
<text x="446.57" y="386" font-size="12" font-family="Arial, sans-serif" fill="#1d4ed8">theta_true = 1.35</text>
<text x="455.00" y="502" text-anchor="middle" font-size="13" font-family="Arial, sans-serif" fill="#111827">theta with Laplace N(theta_MAP, sigma_theta^2), sigma_theta = 0.127</text>
</svg>
