<svg xmlns="http://www.w3.org/2000/svg" width="860" height="520" viewBox="0 0 860 520">
<rect width="100%" height="100%" fill="#fffdf8"/>
<text x="78" y="24" font-size="18" font-family="Arial, sans-serif" fill="#1f2937">Variational reconstruction tracks the hidden position while keeping a Gaussian posterior factor for theta</text>
<line x1="78" y1="40.00" x2="832" y2="40.00" stroke="#e5e7eb" stroke-width="1"/>
<text x="66" y="44.00" text-anchor="end" font-size="12" font-family="Arial, sans-serif" fill="#4b5563">1.6</text>
<line x1="78" y1="96.00" x2="832" y2="96.00" stroke="#e5e7eb" stroke-width="1"/>
<text x="66" y="100.00" text-anchor="end" font-size="12" font-family="Arial, sans-serif" fill="#4b5563">0.9</text>
<line x1="78" y1="152.00" x2="832" y2="152.00" stroke="#e5e7eb" stroke-width="1"/>
<text x="66" y="156.00" text-anchor="end" font-size="12" font-family="Arial, sans-serif" fill="#4b5563">0.2</text>
<line x1="78" y1="208.00" x2="832" y2="208.00" stroke="#e5e7eb" stroke-width="1"/>
<text x="66" y="212.00" text-anchor="end" font-size="12" font-family="Arial, sans-serif" fill="#4b5563">-0.5</text>
<line x1="78" y1="264.00" x2="832" y2="264.00" stroke="#e5e7eb" stroke-width="1"/>
<text x="66" y="268.00" text-anchor="end" font-size="12" font-family="Arial, sans-serif" fill="#4b5563">-1.2</text>
<line x1="78" y1="320.00" x2="832" y2="320.00" stroke="#e5e7eb" stroke-width="1"/>
<text x="66" y="324.00" text-anchor="end" font-size="12" font-family="Arial, sans-serif" fill="#4b5563">-1.9</text>
<line x1="78.00" y1="40" x2="78.00" y2="320" stroke="#f3f4f6" stroke-width="1"/>
<text x="78.00" y="344" text-anchor="middle" font-size="12" font-family="Arial, sans-serif" fill="#4b5563">0.0</text>
<line x1="266.50" y1="40" x2="266.50" y2="320" stroke="#f3f4f6" stroke-width="1"/>
<text x="266.50" y="344" text-anchor="middle" font-size="12" font-family="Arial, sans-serif" fill="#4b5563">1.5</text>
<line x1="455.00" y1="40" x2="455.00" y2="320" stroke="#f3f4f6" stroke-width="1"/>
<text x="455.00" y="344" text-anchor="middle" font-size="12" font-family="Arial, sans-serif" fill="#4b5563">3.0</text>
<line x1="643.50" y1="40" x2="643.50" y2="320" stroke="#f3f4f6" stroke-width="1"/>
<text x="643.50" y="344" text-anchor="middle" font-size="12" font-family="Arial, sans-serif" fill="#4b5563">4.5</text>
<line x1="832.00" y1="40" x2="832.00" y2="320" stroke="#f3f4f6" stroke-width="1"/>
<text x="832.00" y="344" text-anchor="middle" font-size="12" font-family="Arial, sans-serif" fill="#4b5563">6.0</text>
<line x1="78" y1="320" x2="832" y2="320" stroke="#111827" stroke-width="1.5"/>
<line x1="78" y1="40" x2="78" y2="320" stroke="#111827" stroke-width="1.5"/>
<polyline fill="none" stroke="#1d4ed8" stroke-width="3" points="78.00,81.68 96.85,83.49 115.70,87.49 134.55,94.64 153.40,104.08 172.25,114.65 191.10,126.20 209.95,139.17 228.80,154.17 247.65,170.68 266.50,188.46 285.35,207.05 304.20,224.27 323.05,238.07 341.90,253.46 360.75,264.27 379.60,274.43 398.45,281.95 417.30,285.29 436.15,288.22 455.00,288.47 473.85,285.57 492.70,281.85 511.55,272.62 530.40,263.26 549.25,253.44 568.10,238.00 586.95,222.77 605.80,205.83 624.65,186.97 643.50,165.04 662.35,145.21 681.20,126.52 700.05,111.00 718.90,95.52 737.75,83.58 756.60,72.29 775.45,66.67 794.30,61.50 813.15,60.00 832.00,61.21"/>
<polyline fill="none" stroke="#0f766e" stroke-width="3" stroke-dasharray="10 6" points="78.00,84.69 96.85,85.93 115.70,89.48 134.55,95.41 153.40,103.51 172.25,113.58 191.10,125.28 209.95,138.65 228.80,153.45 247.65,169.66 266.50,186.79 285.35,204.16 304.20,221.30 323.05,237.45 341.90,252.38 360.75,265.44 379.60,276.38 398.45,284.57 417.30,290.13 436.15,292.61 455.00,291.96 473.85,288.57 492.70,282.52 511.55,274.16 530.40,264.02 549.25,251.65 568.10,237.17 586.95,221.00 605.80,203.51 624.65,185.00 643.50,166.02 662.35,147.39 681.20,129.65 700.05,113.05 718.90,98.17 737.75,85.39 756.60,74.73 775.45,66.58 794.30,60.80 813.15,57.73 832.00,57.18"/>
<circle cx="78.00" cy="85.82" r="3.4" fill="#c2410c" opacity="0.85"/>
<circle cx="96.85" cy="86.43" r="3.4" fill="#c2410c" opacity="0.85"/>
<circle cx="115.70" cy="84.08" r="3.4" fill="#c2410c" opacity="0.85"/>
<circle cx="134.55" cy="95.81" r="3.4" fill="#c2410c" opacity="0.85"/>
<circle cx="153.40" cy="105.99" r="3.4" fill="#c2410c" opacity="0.85"/>
<circle cx="172.25" cy="125.43" r="3.4" fill="#c2410c" opacity="0.85"/>
<circle cx="191.10" cy="126.32" r="3.4" fill="#c2410c" opacity="0.85"/>
<circle cx="209.95" cy="143.46" r="3.4" fill="#c2410c" opacity="0.85"/>
<circle cx="228.80" cy="142.89" r="3.4" fill="#c2410c" opacity="0.85"/>
<circle cx="247.65" cy="164.36" r="3.4" fill="#c2410c" opacity="0.85"/>
<circle cx="266.50" cy="188.69" r="3.4" fill="#c2410c" opacity="0.85"/>
<circle cx="285.35" cy="200.59" r="3.4" fill="#c2410c" opacity="0.85"/>
<circle cx="304.20" cy="227.56" r="3.4" fill="#c2410c" opacity="0.85"/>
<circle cx="323.05" cy="227.89" r="3.4" fill="#c2410c" opacity="0.85"/>
<circle cx="341.90" cy="253.51" r="3.4" fill="#c2410c" opacity="0.85"/>
<circle cx="360.75" cy="258.63" r="3.4" fill="#c2410c" opacity="0.85"/>
<circle cx="379.60" cy="286.92" r="3.4" fill="#c2410c" opacity="0.85"/>
<circle cx="398.45" cy="278.60" r="3.4" fill="#c2410c" opacity="0.85"/>
<circle cx="417.30" cy="301.62" r="3.4" fill="#c2410c" opacity="0.85"/>
<circle cx="436.15" cy="307.91" r="3.4" fill="#c2410c" opacity="0.85"/>
<circle cx="455.00" cy="291.42" r="3.4" fill="#c2410c" opacity="0.85"/>
<circle cx="473.85" cy="294.27" r="3.4" fill="#c2410c" opacity="0.85"/>
<circle cx="492.70" cy="280.26" r="3.4" fill="#c2410c" opacity="0.85"/>
<circle cx="511.55" cy="250.90" r="3.4" fill="#c2410c" opacity="0.85"/>
<circle cx="530.40" cy="271.30" r="3.4" fill="#c2410c" opacity="0.85"/>
<circle cx="549.25" cy="259.48" r="3.4" fill="#c2410c" opacity="0.85"/>
<circle cx="568.10" cy="236.01" r="3.4" fill="#c2410c" opacity="0.85"/>
<circle cx="586.95" cy="218.00" r="3.4" fill="#c2410c" opacity="0.85"/>
<circle cx="605.80" cy="207.53" r="3.4" fill="#c2410c" opacity="0.85"/>
<circle cx="624.65" cy="188.97" r="3.4" fill="#c2410c" opacity="0.85"/>
<circle cx="643.50" cy="158.25" r="3.4" fill="#c2410c" opacity="0.85"/>
<circle cx="662.35" cy="140.18" r="3.4" fill="#c2410c" opacity="0.85"/>
<circle cx="681.20" cy="136.52" r="3.4" fill="#c2410c" opacity="0.85"/>
<circle cx="700.05" cy="111.77" r="3.4" fill="#c2410c" opacity="0.85"/>
<circle cx="718.90" cy="95.17" r="3.4" fill="#c2410c" opacity="0.85"/>
<circle cx="737.75" cy="93.78" r="3.4" fill="#c2410c" opacity="0.85"/>
<circle cx="756.60" cy="69.78" r="3.4" fill="#c2410c" opacity="0.85"/>
<circle cx="775.45" cy="74.97" r="3.4" fill="#c2410c" opacity="0.85"/>
<circle cx="794.30" cy="52.09" r="3.4" fill="#c2410c" opacity="0.85"/>
<circle cx="813.15" cy="58.14" r="3.4" fill="#c2410c" opacity="0.85"/>
<circle cx="832.00" cy="60.34" r="3.4" fill="#c2410c" opacity="0.85"/>
<line x1="438" y1="58" x2="473" y2="58" stroke="#1d4ed8" stroke-width="3"/>
<text x="480" y="62" font-size="12" font-family="Arial, sans-serif" fill="#111827">true q_k</text>
<line x1="558" y1="58" x2="593" y2="58" stroke="#0f766e" stroke-width="3" stroke-dasharray="10 6"/>
<text x="600" y="62" font-size="12" font-family="Arial, sans-serif" fill="#111827">variational mean m_k</text>
<circle cx="748" cy="58" r="3.4" fill="#c2410c"/>
<text x="760" y="62" font-size="12" font-family="Arial, sans-serif" fill="#111827">observed y_k</text>
<text x="20" y="180.00" text-anchor="middle" transform="rotate(-90 20 180.00)" font-size="13" font-family="Arial, sans-serif" fill="#111827">position q_k</text>
<text x="455.00" y="368" text-anchor="middle" font-size="13" font-family="Arial, sans-serif" fill="#111827">time</text>
<text x="78" y="354" font-size="15" font-family="Arial, sans-serif" fill="#1f2937">Final Gaussian factor q(theta)</text>
<line x1="78.00" y1="370" x2="78.00" y2="480" stroke="#f3f4f6" stroke-width="1"/>
<text x="78.00" y="502" text-anchor="middle" font-size="12" font-family="Arial, sans-serif" fill="#4b5563">0.92</text>
<line x1="228.80" y1="370" x2="228.80" y2="480" stroke="#f3f4f6" stroke-width="1"/>
<text x="228.80" y="502" text-anchor="middle" font-size="12" font-family="Arial, sans-serif" fill="#4b5563">1.10</text>
<line x1="379.60" y1="370" x2="379.60" y2="480" stroke="#f3f4f6" stroke-width="1"/>
<text x="379.60" y="502" text-anchor="middle" font-size="12" font-family="Arial, sans-serif" fill="#4b5563">1.28</text>
<line x1="530.40" y1="370" x2="530.40" y2="480" stroke="#f3f4f6" stroke-width="1"/>
<text x="530.40" y="502" text-anchor="middle" font-size="12" font-family="Arial, sans-serif" fill="#4b5563">1.46</text>
<line x1="681.20" y1="370" x2="681.20" y2="480" stroke="#f3f4f6" stroke-width="1"/>
<text x="681.20" y="502" text-anchor="middle" font-size="12" font-family="Arial, sans-serif" fill="#4b5563">1.64</text>
<line x1="832.00" y1="370" x2="832.00" y2="480" stroke="#f3f4f6" stroke-width="1"/>
<text x="832.00" y="502" text-anchor="middle" font-size="12" font-family="Arial, sans-serif" fill="#4b5563">1.82</text>
<line x1="78" y1="480" x2="832" y2="480" stroke="#111827" stroke-width="1.5"/>
<line x1="78" y1="370" x2="78" y2="480" stroke="#111827" stroke-width="1.5"/>
<polyline fill="none" stroke="#7c3aed" stroke-width="3" points="78.00,479.99 81.44,479.98 84.89,479.98 88.33,479.98 91.77,479.97 95.21,479.97 98.66,479.97 102.10,479.96 105.54,479.95 108.99,479.94 112.43,479.94 115.87,479.93 119.32,479.91 122.76,479.90 126.20,479.88 129.64,479.87 133.09,479.85 136.53,479.82 139.97,479.80 143.42,479.77 146.86,479.73 150.30,479.70 153.74,479.65 157.19,479.60 160.63,479.55 164.07,479.49 167.52,479.42 170.96,479.34 174.40,479.26 177.84,479.16 181.29,479.06 184.73,478.94 188.17,478.80 191.62,478.66 195.06,478.50 198.50,478.32 201.95,478.12 205.39,477.90 208.83,477.67 212.27,477.40 215.72,477.12 219.16,476.80 222.60,476.46 226.05,476.09 229.49,475.68 232.93,475.24 236.37,474.76 239.82,474.24 243.26,473.69 246.70,473.08 250.15,472.44 253.59,471.74 257.03,470.99 260.47,470.19 263.92,469.34 267.36,468.42 270.80,467.45 274.25,466.42 277.69,465.33 281.13,464.17 284.58,462.95 288.02,461.66 291.46,460.30 294.90,458.87 298.35,457.38 301.79,455.81 305.23,454.18 308.68,452.47 312.12,450.70 315.56,448.87 319.00,446.96 322.45,445.00 325.89,442.97 329.33,440.89 332.78,438.75 336.22,436.56 339.66,434.32 343.11,432.05 346.55,429.73 349.99,427.38 353.43,425.01 356.88,422.61 360.32,420.20 363.76,417.79 367.21,415.37 370.65,412.97 374.09,410.57 377.53,408.21 380.98,405.87 384.42,403.58 387.86,401.33 391.31,399.14 394.75,397.01 398.19,394.96 401.63,392.99 405.08,391.11 408.52,389.32 411.96,387.64 415.41,386.07 418.85,384.62 422.29,383.29 425.74,382.09 429.18,381.03 432.62,380.11 436.06,379.33 439.51,378.70 442.95,378.22 446.39,377.89 449.84,377.72 453.28,377.70 456.72,377.84 460.16,378.13 463.61,378.57 467.05,379.17 470.49,379.91 473.94,380.80 477.38,381.83 480.82,382.99 484.26,384.29 487.71,385.72 491.15,387.26 494.59,388.91 498.04,390.67 501.48,392.53 504.92,394.49 508.37,396.52 511.81,398.63 515.25,400.81 518.69,403.04 522.14,405.33 525.58,407.65 529.02,410.01 532.47,412.40 535.91,414.80 539.35,417.22 542.79,419.63 546.24,422.04 549.68,424.44 553.12,426.82 556.57,429.18 560.01,431.50 563.45,433.79 566.89,436.04 570.34,438.24 573.78,440.39 577.22,442.49 580.67,444.53 584.11,446.51 587.55,448.42 591.00,450.28 594.44,452.06 597.88,453.78 601.32,455.43 604.77,457.01 608.21,458.52 611.65,459.97 615.10,461.34 618.54,462.65 621.98,463.89 625.42,465.06 628.87,466.17 632.31,467.22 635.75,468.20 639.20,469.13 642.64,469.99 646.08,470.81 649.53,471.57 652.97,472.27 656.41,472.93 659.85,473.55 663.30,474.12 666.74,474.64 670.18,475.13 673.63,475.58 677.07,475.99 680.51,476.37 683.95,476.72 687.40,477.04 690.84,477.34 694.28,477.61 697.73,477.85 701.17,478.07 704.61,478.27 708.05,478.46 711.50,478.62 714.94,478.77 718.38,478.91 721.83,479.03 725.27,479.14 728.71,479.24 732.16,479.32 735.60,479.40 739.04,479.47 742.48,479.54 745.93,479.59 749.37,479.64 752.81,479.69 756.26,479.73 759.70,479.76 763.14,479.79 766.58,479.82 770.03,479.84 773.47,479.86 776.91,479.88 780.36,479.90 783.80,479.91 787.24,479.92 790.68,479.93 794.13,479.94 797.57,479.95 801.01,479.96 804.46,479.96 807.90,479.97 811.34,479.97 814.79,479.98 818.23,479.98 821.67,479.98 825.11,479.99 828.56,479.99 832.00,479.99"/>
<line x1="451.96" y1="370" x2="451.96" y2="480" stroke="#0f766e" stroke-width="2.5" stroke-dasharray="8 6"/>
<text x="457.96" y="362" font-size="12" font-family="Arial, sans-serif" fill="#0f766e">mu_theta = 1.366</text>
<line x1="438.24" y1="370" x2="438.24" y2="480" stroke="#1d4ed8" stroke-width="2.5" stroke-dasharray="8 6"/>
<text x="444.24" y="386" font-size="12" font-family="Arial, sans-serif" fill="#1d4ed8">theta_true = 1.35</text>
<text x="455.00" y="502" text-anchor="middle" font-size="13" font-family="Arial, sans-serif" fill="#111827">q(theta) = N(1.366, 0.106^2)</text>
</svg>
