<svg xmlns="http://www.w3.org/2000/svg" width="820" height="360" viewBox="0 0 820 360">
<rect width="100%" height="100%" fill="#fffdf8"/>
<text x="80" y="22" font-size="18" font-family="Arial, sans-serif" fill="#1f2937">The restricted free energy falls quickly, then levels off as the Gaussian parameter factor settles</text>
<line x1="80" y1="285.00" x2="790" y2="285.00" stroke="#e5e7eb" stroke-width="1"/>
<text x="68" y="289.00" text-anchor="end" font-size="12" font-family="Arial, sans-serif" fill="#4b5563">0</text>
<line x1="80" y1="231.43" x2="790" y2="231.43" stroke="#e5e7eb" stroke-width="1"/>
<text x="68" y="235.43" text-anchor="end" font-size="12" font-family="Arial, sans-serif" fill="#4b5563">15</text>
<line x1="80" y1="177.86" x2="790" y2="177.86" stroke="#e5e7eb" stroke-width="1"/>
<text x="68" y="181.86" text-anchor="end" font-size="12" font-family="Arial, sans-serif" fill="#4b5563">30</text>
<line x1="80" y1="124.29" x2="790" y2="124.29" stroke="#e5e7eb" stroke-width="1"/>
<text x="68" y="128.29" text-anchor="end" font-size="12" font-family="Arial, sans-serif" fill="#4b5563">45</text>
<line x1="80" y1="70.71" x2="790" y2="70.71" stroke="#e5e7eb" stroke-width="1"/>
<text x="68" y="74.71" text-anchor="end" font-size="12" font-family="Arial, sans-serif" fill="#4b5563">60</text>
<line x1="80.00" y1="35" x2="80.00" y2="285" stroke="#f3f4f6" stroke-width="1"/>
<text x="80.00" y="309" text-anchor="middle" font-size="12" font-family="Arial, sans-serif" fill="#4b5563">0</text>
<line x1="181.43" y1="35" x2="181.43" y2="285" stroke="#f3f4f6" stroke-width="1"/>
<text x="181.43" y="309" text-anchor="middle" font-size="12" font-family="Arial, sans-serif" fill="#4b5563">1</text>
<line x1="282.86" y1="35" x2="282.86" y2="285" stroke="#f3f4f6" stroke-width="1"/>
<text x="282.86" y="309" text-anchor="middle" font-size="12" font-family="Arial, sans-serif" fill="#4b5563">2</text>
<line x1="384.29" y1="35" x2="384.29" y2="285" stroke="#f3f4f6" stroke-width="1"/>
<text x="384.29" y="309" text-anchor="middle" font-size="12" font-family="Arial, sans-serif" fill="#4b5563">3</text>
<line x1="485.71" y1="35" x2="485.71" y2="285" stroke="#f3f4f6" stroke-width="1"/>
<text x="485.71" y="309" text-anchor="middle" font-size="12" font-family="Arial, sans-serif" fill="#4b5563">4</text>
<line x1="587.14" y1="35" x2="587.14" y2="285" stroke="#f3f4f6" stroke-width="1"/>
<text x="587.14" y="309" text-anchor="middle" font-size="12" font-family="Arial, sans-serif" fill="#4b5563">5</text>
<line x1="688.57" y1="35" x2="688.57" y2="285" stroke="#f3f4f6" stroke-width="1"/>
<text x="688.57" y="309" text-anchor="middle" font-size="12" font-family="Arial, sans-serif" fill="#4b5563">6</text>
<line x1="790.00" y1="35" x2="790.00" y2="285" stroke="#f3f4f6" stroke-width="1"/>
<text x="790.00" y="309" text-anchor="middle" font-size="12" font-family="Arial, sans-serif" fill="#4b5563">7</text>
<line x1="80" y1="285" x2="790" y2="285" stroke="#111827" stroke-width="1.5"/>
<line x1="80" y1="35" x2="80" y2="285" stroke="#111827" stroke-width="1.5"/>
<polyline fill="none" stroke="#0f766e" stroke-width="4" points="80.00,48.17 181.43,203.15 282.86,219.92 384.29,221.67 485.71,221.85 587.14,221.87 688.57,221.87 790.00,221.87"/>
<circle cx="80.00" cy="48.17" r="4.5" fill="#c2410c"/>
<text x="80.00" y="64.17" text-anchor="middle" font-size="11" font-family="Arial, sans-serif" fill="#7c2d12">66.3</text>
<circle cx="181.43" cy="203.15" r="4.5" fill="#c2410c"/>
<text x="181.43" y="193.15" text-anchor="middle" font-size="11" font-family="Arial, sans-serif" fill="#7c2d12">22.9</text>
<circle cx="282.86" cy="219.92" r="4.5" fill="#c2410c"/>
<text x="282.86" y="209.92" text-anchor="middle" font-size="11" font-family="Arial, sans-serif" fill="#7c2d12">18.2</text>
<circle cx="384.29" cy="221.67" r="4.5" fill="#c2410c"/>
<text x="384.29" y="211.67" text-anchor="middle" font-size="11" font-family="Arial, sans-serif" fill="#7c2d12">17.7</text>
<circle cx="485.71" cy="221.85" r="4.5" fill="#c2410c"/>
<text x="485.71" y="211.85" text-anchor="middle" font-size="11" font-family="Arial, sans-serif" fill="#7c2d12">17.7</text>
<circle cx="587.14" cy="221.87" r="4.5" fill="#c2410c"/>
<text x="587.14" y="211.87" text-anchor="middle" font-size="11" font-family="Arial, sans-serif" fill="#7c2d12">17.7</text>
<circle cx="688.57" cy="221.87" r="4.5" fill="#c2410c"/>
<text x="688.57" y="211.87" text-anchor="middle" font-size="11" font-family="Arial, sans-serif" fill="#7c2d12">17.7</text>
<circle cx="790.00" cy="221.87" r="4.5" fill="#c2410c"/>
<text x="790.00" y="211.87" text-anchor="middle" font-size="11" font-family="Arial, sans-serif" fill="#7c2d12">17.7</text>
<text x="435.00" y="342" text-anchor="middle" font-size="13" font-family="Arial, sans-serif" fill="#111827">Outer coordinate-ascent iteration</text>
<text x="20" y="160.00" text-anchor="middle" transform="rotate(-90 20 160.00)" font-size="13" font-family="Arial, sans-serif" fill="#111827">Restricted free energy</text>
</svg>
